<svg id="Capa_1" data-name="Capa 1" xmlns="http://www.w3.org/2000/svg" viewBox="0 0 301.98 307.35"><defs><style>.cls-1{fill:#fbb03b;}</style></defs><title>icos</title><path class="cls-1" d="M153.27,110.33H40.82a4.4,4.4,0,1,0,0,8.79H153.27a4.4,4.4,0,1,0,0-8.79Z"/><path class="cls-1" d="M153.27,141.2H40.82a4.4,4.4,0,1,0,0,8.79H153.27a4.4,4.4,0,1,0,0-8.79Z"/><path class="cls-1" d="M153.27,172.07H40.82a4.39,4.39,0,1,0,0,8.78H153.27a4.39,4.39,0,1,0,0-8.78Z"/><path class="cls-1" d="M157.67,207.33a4.39,4.39,0,0,0-4.4-4.39H40.82a4.39,4.39,0,1,0,0,8.78H153.27A4.4,4.4,0,0,0,157.67,207.33Z"/><path class="cls-1" d="M40.82,248.17a4.4,4.4,0,1,0,0,8.79H97.19a4.4,4.4,0,0,0,0-8.79Z"/><path class="cls-1" d="M203.89,58.41V44.15a9.85,9.85,0,0,0-9.84-9.85H103.86A9.86,9.86,0,0,0,94,44.15V58.41a9.85,9.85,0,0,0,9.85,9.84h7.62a4.39,4.39,0,0,0,0-8.78h-7.62a1.06,1.06,0,0,1-1.06-1.06V44.15a1.06,1.06,0,0,1,1.06-1.06h90.19a1.07,1.07,0,0,1,1.06,1.06V58.41a1.07,1.07,0,0,1-1.06,1.06H132a4.39,4.39,0,1,0,0,8.78h62A9.85,9.85,0,0,0,203.89,58.41Z"/><path class="cls-1" d="M236.74,271.88a4.39,4.39,0,0,0-4.39,4.39v5.92a13,13,0,0,1-12.95,12.95H25.07a13,13,0,0,1-12.95-12.95V71a13,13,0,0,1,.31-2.79h40A15.16,15.16,0,0,0,67.57,53.11v-40a13,13,0,0,1,2.79-.31h149a13,13,0,0,1,12.95,13V84.23a4.39,4.39,0,1,0,8.78,0V25.75A21.76,21.76,0,0,0,219.4,4h-149A21.59,21.59,0,0,0,55,10.38L9.7,55.67A21.6,21.6,0,0,0,3.33,71V282.19a21.76,21.76,0,0,0,21.74,21.73H219.4a21.76,21.76,0,0,0,21.73-21.73v-5.92a4.39,4.39,0,0,0-4.39-4.39ZM58.78,19v34.1a6.37,6.37,0,0,1-6.36,6.36H18.33Z"/><path class="cls-1" d="M296.91,161a17.57,17.57,0,0,0-8.59-26.42,8.74,8.74,0,0,1-5.81-8A17.56,17.56,0,0,0,260,110.25a8.71,8.71,0,0,1-9.4-3.06,17.57,17.57,0,0,0-27.78,0,8.74,8.74,0,0,1-9.4,3.06A17.56,17.56,0,0,0,191,126.58a8.74,8.74,0,0,1-5.81,8A17.57,17.57,0,0,0,176.57,161a8.7,8.7,0,0,1,0,9.88,17.58,17.58,0,0,0,8.59,26.43,8.71,8.71,0,0,1,5.81,8,17.56,17.56,0,0,0,15.17,16.87v40a9.32,9.32,0,0,0,14.21,7.94l16.11-9.92a.46.46,0,0,1,.56,0l16.11,9.92a9.32,9.32,0,0,0,14.21-7.94v-40a17.56,17.56,0,0,0,15.17-16.87,8.71,8.71,0,0,1,5.81-8,17.57,17.57,0,0,0,8.59-26.43,8.7,8.7,0,0,1,0-9.88ZM257.74,262.63l-16.11-9.92a9.33,9.33,0,0,0-9.78,0l-16.11,9.92a.54.54,0,0,1-.82-.46V221.34a8.72,8.72,0,0,1,7.93,3.35,17.57,17.57,0,0,0,27.78,0,8.72,8.72,0,0,1,7.93-3.35v40.83a.54.54,0,0,1-.82.46Zm31.91-86.8a8.78,8.78,0,0,1-4.3,13.21,17.45,17.45,0,0,0-11.62,16,8.65,8.65,0,0,1-3.16,6.48,8.76,8.76,0,0,1-8.08,1.68,17.48,17.48,0,0,0-18.81,6.11,8.77,8.77,0,0,1-13.88,0A17.46,17.46,0,0,0,216,212.49a17.77,17.77,0,0,0-5,.71A8.78,8.78,0,0,1,199.75,205a17.45,17.45,0,0,0-11.63-16,8.79,8.79,0,0,1-4.29-13.21,17.44,17.44,0,0,0,0-19.78,8.78,8.78,0,0,1,4.29-13.2,17.47,17.47,0,0,0,11.63-16A8.79,8.79,0,0,1,211,118.68a17.46,17.46,0,0,0,18.81-6.11,8.77,8.77,0,0,1,13.88,0,17.45,17.45,0,0,0,18.81,6.11,8.79,8.79,0,0,1,11.24,8.16,17.45,17.45,0,0,0,11.62,16,8.78,8.78,0,0,1,4.3,13.21,17.44,17.44,0,0,0,0,19.78Z"/><path class="cls-1" d="M236.74,129.12a36.82,36.82,0,1,0,36.82,36.82,36.87,36.87,0,0,0-36.82-36.82Zm0,64.85a28,28,0,1,1,28-28A28.06,28.06,0,0,1,236.74,194Z"/></svg>