<svg id="Capa_1" data-name="Capa 1" xmlns="http://www.w3.org/2000/svg" viewBox="0 0 320.67 321.79"><defs><style>.cls-1{fill:#fbb03b;}.cls-2{fill:#fff;}</style></defs><title>icos</title><path class="cls-1" d="M297.2,110.47H226.72v12.24H297.2a7.66,7.66,0,0,1,7.65,7.65V299.9a7.66,7.66,0,0,1-7.65,7.65H24.84a7.66,7.66,0,0,1-7.65-7.65V130.36a7.66,7.66,0,0,1,7.65-7.65h182.7V110.47H24.84A19.92,19.92,0,0,0,5,130.36V299.9a19.91,19.91,0,0,0,19.89,19.89H297.2a19.91,19.91,0,0,0,19.89-19.89V130.36A19.92,19.92,0,0,0,297.2,110.47Z"/><rect class="cls-1" x="47.18" y="116.59" width="12.24" height="197.08"/><rect class="cls-1" x="261.39" y="116.59" width="12.24" height="197.08"/><path class="cls-2" d="M230.21,12.75H203.89a2.47,2.47,0,0,0-2.47,2.47V158.83h31.42V15.37A2.62,2.62,0,0,0,230.21,12.75Zm-3.49,140H207.54v-100h19.18ZM207.54,40.5V26.11a7.25,7.25,0,0,1,7.24-7.24h3.88a8.07,8.07,0,0,1,8.06,8.06V40.5Z"/><path class="cls-1" d="M218.66,6.63h-3.88A19.5,19.5,0,0,0,195.3,26.11V164.94H239v-138A20.33,20.33,0,0,0,218.66,6.63Zm8.06,146.07H207.54V26.11a7.25,7.25,0,0,1,7.24-7.24h3.88a8.07,8.07,0,0,1,8.06,8.06Z"/><rect class="cls-1" x="201.42" y="40.5" width="31.42" height="12.24"/><rect class="cls-1" x="232.83" y="29.07" width="20.6" height="12.24"/><path class="cls-1" d="M253.44,90.27a6.12,6.12,0,0,1-6.12-6.12V22.54a6.12,6.12,0,0,1,12.24,0V84.15A6.12,6.12,0,0,1,253.44,90.27Z"/><path class="cls-1" d="M238,160.5a6.11,6.11,0,0,0-5.2-2.9H201.42a6.12,6.12,0,0,0-5.21,2.9,6.22,6.22,0,0,0-.91,2.8v.77a8.62,8.62,0,0,0,.11.87,6.54,6.54,0,0,0,.53,1.52l15.71,31.42a6.12,6.12,0,0,0,10.95,0l15.71-31.42a6.54,6.54,0,0,0,.53-1.52,6.23,6.23,0,0,0,.12-1.22A6.12,6.12,0,0,0,238,160.5Zm-20.91,21-5.81-11.62h11.61Z"/><path class="cls-1" d="M237.22,267.36H80a6.12,6.12,0,1,1,0-12.24h157.2a6.12,6.12,0,1,1,0,12.24Z"/><path class="cls-1" d="M288.94,235.64a6.12,6.12,0,0,1-6.13-6.12V202a6.13,6.13,0,0,1,12.25,0v27.55A6.12,6.12,0,0,1,288.94,235.64Z"/><path class="cls-1" d="M31.87,250.33a6.12,6.12,0,0,1-6.12-6.13V216.66a6.13,6.13,0,0,1,12.25,0V244.2A6.12,6.12,0,0,1,31.87,250.33Z"/><path class="cls-1" d="M31.87,201.36a6.12,6.12,0,0,1-6.12-6.12V181.47a6.13,6.13,0,0,1,12.25,0v13.77A6.12,6.12,0,0,1,31.87,201.36Z"/><path class="cls-1" d="M109,173.31c-11.6,0-20.27,12-20.27,22.72,0,6,3.42,22.11,10.8,30.2a17.12,17.12,0,0,0,2.16,2h0A11.55,11.55,0,0,0,109,231c3.88,0,7.16-2.07,9.89-5.23a30.43,30.43,0,0,0,3.69-5.49.54.54,0,0,0,0-.11c4.53-8.41,6.65-19.41,6.65-24.14C129.24,185.31,120.57,173.31,109,173.31Zm0,12.24c3.83,0,8,5.49,8,10.48,0,4.75-2.46,12.85-5,18.05,0,0,0,0,0,.06l-.4.77h0a12.63,12.63,0,0,1-2.49,3.51.46.46,0,0,1-.07.07,9.59,9.59,0,0,1-1.83-2.31s0,0,0,0c-2.94-4.82-6.19-14.69-6.19-20.14C100.93,191,105.14,185.55,109,185.55Z"/><path class="cls-1" d="M164.8,185.21c-10.22,0-17.85,10.5-17.85,19.88,0,3.3,1.8,14.12,6.34,21.82a23.43,23.43,0,0,0,3.15,4.25l.06.06a11.39,11.39,0,0,0,8.3,3.89H165c4.45-.06,7.9-2.95,10.54-6.93,5.12-7.73,7.13-19.6,7.13-23.08C182.65,195.71,175,185.21,164.8,185.21Zm0,12.25c2.62,0,5.61,4.06,5.61,7.63,0,4.68-3.13,13.82-5.58,17l0,0q-.15-.19-.3-.42c-2.41-3.5-5.31-12.13-5.31-16.64C159.19,201.52,162.18,197.46,164.8,197.46Z"/><path class="cls-1" d="M85.94,245.33a6.12,6.12,0,0,1-2-11.92c9.83-3.34,24.83-11.18,27.39-18.17a6.12,6.12,0,1,1,11.49,4.22c-5.58,15.23-32,24.53-35,25.55A6.09,6.09,0,0,1,85.94,245.33Z"/><path class="cls-1" d="M136.65,242.18a50.43,50.43,0,0,1-39-18.27,6.13,6.13,0,0,1,9.92-7.19c.73,1,17.5,22.91,51,8.12a6.12,6.12,0,1,1,5,11.19C153.43,240.48,144.47,242.18,136.65,242.18Z"/><path class="cls-1" d="M186.93,241.63c-11.69,0-25-2.94-31.78-12A6.12,6.12,0,1,1,165,222.3c5.79,7.79,24.71,8.48,34.69,5.53,6.47-1.91,10.61-10.15,11.67-13.16a6.12,6.12,0,0,1,11.58,4c-.24.68-5.88,16.81-19.77,20.93A60.25,60.25,0,0,1,186.93,241.63Z"/></svg>