<svg id="Capa_1" data-name="Capa 1" xmlns="http://www.w3.org/2000/svg" viewBox="0 0 323.33 207.39"><defs><style>.cls-1{fill:#fbb03b;}</style></defs><title>icos</title><path class="cls-1" d="M254.53,76.75a62.35,62.35,0,0,0-7.49.45,52.41,52.41,0,0,0-50-37,51.32,51.32,0,0,0-16.8,2.8A67.9,67.9,0,0,0,50.72,71.52a66.68,66.68,0,0,0,2,16.34,57.48,57.48,0,0,0,8.41,114.3H254.53a62.71,62.71,0,0,0,0-125.41Zm0,115H61.17a47,47,0,0,1-1.4-94,5.22,5.22,0,0,0,4.78-7,57.43,57.43,0,0,1,108-39.19,5.21,5.21,0,0,0,2.9,3,5.28,5.28,0,0,0,4.18-.08A41.32,41.32,0,0,1,197,50.62a41.89,41.89,0,0,1,41,33.52,5.22,5.22,0,0,0,6.15,4.09,53,53,0,0,1,10.36-1,52.26,52.26,0,0,1,0,104.51Z"/></svg>