<svg id="Capa_1" data-name="Capa 1" xmlns="http://www.w3.org/2000/svg" viewBox="0 0 353 243.4"><defs><style>.cls-1{fill:#fbb03b;}.cls-2{fill:#fff;}.cls-3{fill:#fefefe;}</style></defs><title>icos</title><rect class="cls-1" x="19.52" y="3.04" width="314.67" height="219.33" rx="21.67" ry="21.67"/><rect class="cls-2" x="31.18" y="14.65" width="292.33" height="196.1" rx="9.36" ry="9.36"/><path class="cls-1" d="M10.52,199h332a5,5,0,0,1,5,5V221.7a16,16,0,0,1-16,16h-310a16,16,0,0,1-16-16V204A5,5,0,0,1,10.52,199Z"/><path class="cls-1" d="M302.18,189H52.85A11.35,11.35,0,0,1,41.52,177.7V35A11.35,11.35,0,0,1,52.85,23.7H302.18A11.36,11.36,0,0,1,313.52,35V177.7A11.36,11.36,0,0,1,302.18,189ZM52.85,27.7A7.34,7.34,0,0,0,45.52,35V177.7A7.35,7.35,0,0,0,52.85,185H302.18a7.35,7.35,0,0,0,7.34-7.34V35a7.34,7.34,0,0,0-7.34-7.34Z"/><path class="cls-3" d="M331.14,227.12h-306a8.62,8.62,0,0,1-8.62-8.63v-5a4.37,4.37,0,0,1,4.37-4.37h314a3.63,3.63,0,0,1,3.63,3.62v7A7.38,7.38,0,0,1,331.14,227.12Z"/></svg>