<svg id="Capa_1" data-name="Capa 1" xmlns="http://www.w3.org/2000/svg" viewBox="0 0 288.65 308.01"><defs><style>.cls-1{fill:#fbb03b;}</style></defs><title>icos</title><g id="Stamp-Contract-Certification-Document-Business"><path class="cls-1" d="M210.76,294.89h-181A15.08,15.08,0,0,1,14.7,279.81V28.45A15.08,15.08,0,0,1,29.78,13.37H185.62V38.51A15.08,15.08,0,0,0,200.7,53.59h25.14V93.81h10V48.56A5,5,0,0,0,234.42,45L194.2,4.79a5,5,0,0,0-3.55-1.47H29.78A25.15,25.15,0,0,0,4.65,28.45V279.81A25.17,25.17,0,0,0,29.78,305h181a25.13,25.13,0,0,0,16.62-6.29l-6.65-7.54A15.06,15.06,0,0,1,210.76,294.89ZM195.68,38.51v-18l23,23.05h-18A5,5,0,0,1,195.68,38.51Z"/><path class="cls-1" d="M271.08,224.51H261a4.85,4.85,0,0,0-.86-2.76l-6.68-10.06a14.83,14.83,0,0,1-2.51-8.34V189.27a36.05,36.05,0,0,1,7.33-21.47,40.22,40.22,0,1,0-72.69-23.72,39.57,39.57,0,0,0,8.3,24.43,34.09,34.09,0,0,1,6.78,20.71v14.13a14.91,14.91,0,0,1-2.51,8.34l-6.69,10.06a4.91,4.91,0,0,0-.85,2.76H180.6a15.14,15.14,0,0,0-15.09,15.08V259.7a5,5,0,0,0,5,5h5v15.08a5,5,0,0,0,5,5h90.48a5,5,0,0,0,5-5V264.73h5a5,5,0,0,0,5-5V239.59A15.14,15.14,0,0,0,271.08,224.51Zm-75.4-80.43a30.16,30.16,0,1,1,54.54,17.74,46.4,46.4,0,0,0-9.3,27.45v14.08a24.93,24.93,0,0,0,4.22,13.92l4.83,7.24H201.71l4.83-7.24a24.93,24.93,0,0,0,4.22-13.92V189.22a44.14,44.14,0,0,0-8.85-26.79,30,30,0,0,1-6.23-18.35Zm70.38,130.7H185.62v-10h80.44Zm10.05-20.11H175.57V239.59a5,5,0,0,1,5-5h90.48a5,5,0,0,1,5,5Z"/><path class="cls-1" d="M85.08,274.78a50.27,50.27,0,1,0-50.27-50.27A50.27,50.27,0,0,0,85.08,274.78Zm0-90.49a40.22,40.22,0,1,1-40.22,40.22A40.22,40.22,0,0,1,85.08,184.29Z"/><path class="cls-1" d="M80.05,244.62a5,5,0,0,0,3.56-1.47L113.77,213l-7.11-7.1-26.61,26.6L68.53,221l-7.11,7.1L76.5,243.15a5,5,0,0,0,3.55,1.47Z"/><path class="cls-1" d="M125.3,78.72H115.24a5,5,0,0,1-5-5H100.16a15.08,15.08,0,0,0,15.08,15.08v5H125.3v-5a15.08,15.08,0,0,0,0-30.16H115.24a5,5,0,0,1,0-10.06H125.3a5,5,0,0,1,5,5h10.06A15.08,15.08,0,0,0,125.3,38.51v-5H115.24v5a15.08,15.08,0,1,0,0,30.16H125.3a5,5,0,0,1,0,10Z"/><path class="cls-1" d="M150.43,58.62h10.06V68.67H150.43Z"/><path class="cls-1" d="M80.05,58.62H90.11V68.67H80.05Z"/><path class="cls-1" d="M34.81,103.86H54.92v10H34.81Z"/><path class="cls-1" d="M65,103.86H185.62v10H65Z"/><path class="cls-1" d="M34.81,124H175.57V134H34.81Z"/><path class="cls-1" d="M34.81,144.08H175.57v10H34.81Z"/><path class="cls-1" d="M34.81,164.19H54.92v10.05H34.81Z"/><path class="cls-1" d="M115.24,164.19h60.33v10.05H115.24Z"/><path class="cls-1" d="M140.38,184.29H180.6v10.06H140.38Z"/></g></svg>