<svg id="Capa_1" data-name="Capa 1" xmlns="http://www.w3.org/2000/svg" viewBox="0 0 241.13 312.34"><defs><style>.cls-1{fill:#fbb03b;}</style></defs><title>icos</title><path class="cls-1" d="M235.54,66.76l-.3-.3v-.31L177.43,8.34l-.3-.3a.3.3,0,0,1-.31-.3.3.3,0,0,1-.3-.31,5,5,0,0,0-3-.61H30.18a20.73,20.73,0,0,0-14.61,6.09,21.25,21.25,0,0,0-6.08,14.6V286.42a20.24,20.24,0,0,0,5.78,14.3l.3.31a21.27,21.27,0,0,0,14.61,6.08H215.46A20.7,20.7,0,0,0,230.07,301a21.25,21.25,0,0,0,6.08-14.61V69.8A8.82,8.82,0,0,0,235.54,66.76Zm-56.28-38,34.38,34.38H188.38A8.26,8.26,0,0,1,182,60.37,9.44,9.44,0,0,1,179.26,54V28.73Zm43.81,257.69a8.35,8.35,0,0,1-7.91,7.91h-185a7.62,7.62,0,0,1-5.48-2.43l-.3-.3a8.64,8.64,0,0,1-2.13-5.18V27.21a7.62,7.62,0,0,1,2.43-5.48,7.62,7.62,0,0,1,5.48-2.43h136.3V53.68a22.1,22.1,0,0,0,6.69,15.82A22.6,22.6,0,0,0,189,75.89h34.08V286.42Z"/><path class="cls-1" d="M190.28,120.78a5.31,5.31,0,0,0,4.71-2.65,11.1,11.1,0,0,0,1.79-6,11.78,11.78,0,0,0-1.58-6.38,5.54,5.54,0,0,0-5-2.77,5.22,5.22,0,0,0-5.21,3.07,28,28,0,0,0-1.8,6.86q-1.52,9.06-3.62,12.42Q176,131,167.88,130.81l-1.22,0q-7.5-.19-11.66-7.09a23.53,23.53,0,0,1-3-12.64,22.83,22.83,0,0,1,3.43-12.21q4.38-6.73,11.88-6.66l1.22,0-.13,9.69-1.18,0a5.16,5.16,0,0,0-4.67,2.61,12.69,12.69,0,0,0-1.84,6.72,13.42,13.42,0,0,0,1.61,7.09,5.23,5.23,0,0,0,4.58,2.81H168a5.07,5.07,0,0,0,4.82-3.07,27.88,27.88,0,0,0,1.76-6.9q1.56-9,3.66-12.42c2.33-3.74,6.35-5.57,12-5.47l0,0a13.65,13.65,0,0,1,12.12,7,21.91,21.91,0,0,1,3.06,11.93,21.4,21.4,0,0,1-3.45,11.49q-4.4,6.75-11.88,6.69h-.11l.12-9.68Z"/><path class="cls-1" d="M204,164.38l-.16,9.72L152,173.24l.16-9.72,21.52.36.29-17.51L152.48,146l.16-9.72,51.84.86-.17,9.72-21.56-.36-.29,17.5Z"/><path class="cls-1" d="M163.35,191.3l-11.55-4.25.16-9.69,51.52,19.41-.11,6.93-52.15,17.68.17-9.72,11.69-3.87Zm7.91,13.8,13.79-4.54a18.9,18.9,0,0,1,2.37-.61,15.38,15.38,0,0,1-2.24-.65l-13.73-5Z"/><path class="cls-1" d="M179.29,225.25l-.41,24.57-8.64-.14.41-24.57Z"/><path class="cls-1" d="M193.77,260.58l.12-6.92,8.64.14L202.26,270l-51.83-.87.16-9.25Z"/><path class="cls-1" d="M47,234.87l-1.42,4.06H42.21l6.48-18.12h2.42l6.48,18.12h-3.4l-1.41-4.06ZM51.78,232l-1.66-4.79a6.31,6.31,0,0,1-.23-.82,4.05,4.05,0,0,1-.21.78L48,232Z"/><path class="cls-1" d="M65.7,221.22a7,7,0,0,1,2.76,1,4.29,4.29,0,0,1,2.18,3.33l-3.07.4a1.74,1.74,0,0,0-.88-1.43,4,4,0,0,0-1-.42v4.35a10,10,0,0,1,3.14,1,4,4,0,0,1,1.82,3.72v.28a4.32,4.32,0,0,1-2.2,3.76,6.78,6.78,0,0,1-2.76,1v2.18H63.48v-2.17a6.86,6.86,0,0,1-2.74-1,4.27,4.27,0,0,1-2.2-3.76l3.1-.29v.26a1.63,1.63,0,0,0,.86,1.48,3.7,3.7,0,0,0,1,.41v-4.35a10,10,0,0,1-3.14-.95,4.09,4.09,0,0,1-1.81-3.82h0a4.38,4.38,0,0,1,2.2-3.92,6.69,6.69,0,0,1,2.74-1v-2.18H65.7Zm-2.22,2.87a3.16,3.16,0,0,0-1,.4,1.75,1.75,0,0,0-.86,1.6,1.68,1.68,0,0,0,1,1.66,4.75,4.75,0,0,0,.83.27Zm2.22,7.21v3.94a3.38,3.38,0,0,0,1-.41,1.69,1.69,0,0,0,.88-1.48v-.25a1.63,1.63,0,0,0-1-1.53A5.07,5.07,0,0,0,65.7,231.3Z"/><path class="cls-1" d="M80.89,220.81h3.4v18.12h-3.4v-1.32c-2.06,1.64-3.82,2-5.25,1.17s-2.26-3-2.26-6.4.77-5.56,2.31-6.41,3.16-.4,5.2,1.2Zm0,9.56a5.92,5.92,0,0,0-2.22-1.6,1.56,1.56,0,0,0-.83-.11,1,1,0,0,0-.5.48,9.68,9.68,0,0,0,0,6.49,1,1,0,0,0,.5.48,1.49,1.49,0,0,0,.83-.12,5.78,5.78,0,0,0,2.22-1.59Z"/><path class="cls-1" d="M93.76,235.1H86v-2L95,220.81h1.77v11.4h2.32v2.89H96.75v3.83h-3Zm0-2.89V227.1l-3.86,5.11Z"/><path class="cls-1" d="M102.11,223.84H99.69v-3h5.65v18.12h-3.23Z"/><path class="cls-1" d="M50.27,267.84a9.24,9.24,0,0,1-1.34.9,4.29,4.29,0,0,1-3.11.6,3.37,3.37,0,0,1-2.21-1.95,10.67,10.67,0,0,1-.85-4.67,9.67,9.67,0,0,1,.88-4.48,3.23,3.23,0,0,1,2.27-1.86,4.57,4.57,0,0,1,3.12.68,9.25,9.25,0,0,1,1.24.83v-1.23h3.4v13.53a5.6,5.6,0,0,1-.57,2.05,5.2,5.2,0,0,1-4.45,2.43,12.94,12.94,0,0,1-5.19-.77v-2.79a8.75,8.75,0,0,0,4.23.5c1.51-.17,2.37-.64,2.58-1.42Zm0-6.75a5.9,5.9,0,0,0-2.21-1.6,1.4,1.4,0,0,0-.84-.1,1,1,0,0,0-.5.48,5.82,5.82,0,0,0-.56,2.87,6.51,6.51,0,0,0,.56,3.11,1.05,1.05,0,0,0,.5.48,1.51,1.51,0,0,0,.84-.11,6,6,0,0,0,2.21-1.59Z"/><path class="cls-1" d="M60.57,256.65V268.2A7,7,0,0,1,59,273.05a5.23,5.23,0,0,1-4.08,1.78v-3a1.85,1.85,0,0,0,1.44-.66,4.26,4.26,0,0,0,.87-2.93V256.65Zm0-3.47a1.65,1.65,0,0,1-.49,1.2,1.6,1.6,0,0,1-1.19.5,1.69,1.69,0,0,1-1.69-1.7,1.66,1.66,0,0,1,.49-1.19,1.64,1.64,0,0,1,1.2-.5,1.6,1.6,0,0,1,1.19.5A1.66,1.66,0,0,1,60.57,253.18Z"/><path class="cls-1" d="M77.22,269.73H73.51c-1.67-3.26-3.09-5.39-4.28-6.4H66.6v6.4H63.2V251.62h6.66a5.84,5.84,0,0,1,4.31,1.78,5.73,5.73,0,0,1,0,8.15,6,6,0,0,1-1.23.95A43.77,43.77,0,0,1,77.22,269.73ZM66.6,254.68v5.59h3.26a2.45,2.45,0,0,0,1.79-.77,2.75,2.75,0,0,0,.83-2,2.8,2.8,0,0,0-.83-2,2.44,2.44,0,0,0-1.79-.76Z"/><path class="cls-1" d="M78,251.63H81.4v15.05h8.26v3.05H78Z"/><path class="cls-1" d="M105.31,269.73l-.75-10.12.08-.81-4,10H98.69l-4-10,.09.89-.77,10H90.56l1.31-18.11H95L99.18,262c.22.58.38,1.06.49,1.42a6.19,6.19,0,0,1,.47-1.42l4.23-10.34h3.08l1.32,18.11Z"/></svg>