<svg id="Capa_1" data-name="Capa 1" xmlns="http://www.w3.org/2000/svg" viewBox="0 0 180.67 249.33"><defs><style>.cls-1{fill:#fbb03b;}</style></defs><title>icos</title><path class="cls-1" d="M135.11,174.72a16.49,16.49,0,0,1-14.19-8,4,4,0,0,0-6.79,4.13,24.64,24.64,0,0,0,8.31,8.28l-4.11,18.68-9.93-11.43a4,4,0,1,0-5.79-5.45l-7,8L78,169.45a24.24,24.24,0,0,0,2.66-9.32c34.05,10,68.1-15.67,68.1-51V76.33a4,4,0,1,0-7.94,0v32.83a45.18,45.18,0,1,1-90.35,0V75.46c9.68-.55,17.91-6.63,20.85-17.65A135.93,135.93,0,0,0,125.88,78,4,4,0,0,0,127,70.12,128,128,0,0,1,70.67,47.77,4,4,0,0,0,64.41,51c0,.1,0,10-7.51,14.44A16.32,16.32,0,0,1,46.57,67.4a4,4,0,0,0-4,3.51c0,.39,0-.92,0,31.78a8.19,8.19,0,0,1-4.47-7.26V47a9.45,9.45,0,0,1,9.44-9.43,4,4,0,0,0,3.68-2.49,35.35,35.35,0,0,1,33-22.33h34.06a35.56,35.56,0,0,1,35.52,35.52V95.43a4,4,0,0,0,7.94,0V48.31A43.51,43.51,0,0,0,118.25,4.85H84.19a43.22,43.22,0,0,0-39.36,25A17.4,17.4,0,0,0,30.15,47V95.43a16.22,16.22,0,0,0,12.45,15.7,53.2,53.2,0,0,0,30.25,46v1a16.58,16.58,0,0,1-16.6,16.56,41,41,0,0,0-41,41v23.46a4,4,0,0,0,7.94,0V215.71a33,33,0,0,1,33.05-33.05,24.61,24.61,0,0,0,5.19-.55L67,207.26A4,4,0,0,0,73.86,209l7.82-9-4.83,38.68a4,4,0,0,0,7.88,1L90.32,195c.25.28,2.46,2.76,2.74,3a4,4,0,0,0,5.6-.35l2.38-2.74,5.59,44.78a4,4,0,0,0,7.89-1L109.68,200l7.83,9a4,4,0,0,0,6.87-1.75l5.55-25.15a25.36,25.36,0,0,0,5.18.55,33,33,0,0,1,33,33.05v23.46a4,4,0,0,0,8,0V215.71a41,41,0,0,0-41-41ZM73,197.84l-4.12-18.69a24.07,24.07,0,0,0,4.25-3.25l9.62,10.7Z"/></svg>